<svg  xmlns="http://www.w3.org/2000/svg">
  <symbol id="ico-satisfaction" viewBox="0 0 39.75 39.938">
    <path d="M39.736,19.976 C39.736,25.478 37.791,30.183 33.906,34.090 C30.019,37.998 25.338,39.951 19.867,39.951 C14.394,39.951 9.714,37.998 5.828,34.090 C1.941,30.183 -0.002,25.478 -0.002,19.976 C-0.002,14.474 1.941,9.769 5.828,5.861 C9.714,1.954 14.394,-0.001 19.867,-0.001 C25.338,-0.001 30.019,1.954 33.906,5.861 C37.791,9.769 39.736,14.474 39.736,19.976 ZM38.150,19.976 C38.150,14.911 36.362,10.582 32.786,6.986 C29.210,3.391 24.904,1.594 19.867,1.594 C14.830,1.594 10.523,3.391 6.948,6.986 C3.371,10.582 1.584,14.911 1.584,19.976 C1.584,25.039 3.371,29.370 6.948,32.964 C10.523,36.560 14.830,38.356 19.867,38.356 C24.904,38.356 29.210,36.560 32.786,32.964 C36.362,29.370 38.150,25.039 38.150,19.976 ZM31.527,12.847 C32.087,13.410 32.055,13.974 31.434,14.536 L17.815,27.853 C17.628,28.041 17.379,28.134 17.069,28.134 C16.695,28.134 16.416,28.041 16.229,27.853 L10.912,22.507 C10.352,21.945 10.352,21.382 10.912,20.820 C11.472,20.257 12.032,20.257 12.591,20.820 L17.069,25.320 L29.848,12.847 C30.408,12.285 30.967,12.285 31.527,12.847 Z" class="yellow-svg"/>
  </symbol>
  <symbol id="2" viewBox="0 0 39.844 40">
    <path d="M1.648,19.999 C1.648,25.104 3.424,29.441 6.978,33.007 C10.530,36.575 14.848,38.359 19.931,38.359 C25.014,38.359 29.332,36.575 32.885,33.007 C36.437,29.441 38.215,25.104 38.215,19.999 C38.215,14.896 36.437,10.560 32.885,6.992 C29.332,3.425 25.014,1.640 19.931,1.640 C14.848,1.640 10.530,3.425 6.978,6.992 C3.424,10.560 1.648,14.896 1.648,19.999 ZM39.849,19.999 C39.849,25.521 37.903,30.234 34.013,34.140 C30.123,38.046 25.429,40.000 19.931,40.000 C14.433,40.000 9.740,38.046 5.849,34.140 C1.959,30.234 0.014,25.521 0.014,19.999 C0.014,14.479 1.959,9.765 5.849,5.859 C9.740,1.953 14.433,-0.001 19.931,-0.001 C25.429,-0.001 30.123,1.953 34.013,5.859 C37.903,9.765 39.849,14.479 39.849,19.999 ZM32.224,12.343 L30.901,11.015 L19.931,22.187 L12.307,14.375 L10.984,15.702 L19.931,24.531 L32.224,12.343 ZM19.931,3.671 C19.568,3.671 19.257,3.802 18.998,4.062 C18.738,4.323 18.609,4.636 18.609,5.000 C18.609,5.365 18.738,5.677 18.998,5.937 C19.257,6.198 19.568,6.328 19.931,6.328 C20.294,6.328 20.605,6.198 20.865,5.937 C21.124,5.677 21.254,5.365 21.254,5.000 C21.254,4.636 21.124,4.323 20.865,4.062 C20.605,3.802 20.294,3.671 19.931,3.671 ZM19.931,33.672 C19.568,33.672 19.257,33.802 18.998,34.062 C18.738,34.323 18.609,34.636 18.609,34.999 C18.609,35.365 18.738,35.677 18.998,35.937 C19.257,36.199 19.568,36.328 19.931,36.328 C20.294,36.328 20.605,36.199 20.865,35.937 C21.124,35.677 21.254,35.365 21.254,34.999 C21.254,34.636 21.124,34.323 20.865,34.062 C20.605,33.802 20.294,33.672 19.931,33.672 ZM4.994,18.671 C4.630,18.671 4.319,18.802 4.060,19.062 C3.800,19.323 3.671,19.636 3.671,19.999 C3.671,20.365 3.800,20.677 4.060,20.937 C4.319,21.198 4.630,21.328 4.994,21.328 C5.356,21.328 5.667,21.198 5.927,20.937 C6.186,20.677 6.316,20.365 6.316,19.999 C6.316,19.636 6.186,19.323 5.927,19.062 C5.667,18.802 5.356,18.671 4.994,18.671 ZM34.869,18.671 C34.506,18.671 34.195,18.802 33.936,19.062 C33.675,19.323 33.547,19.636 33.547,19.999 C33.547,20.365 33.675,20.677 33.936,20.937 C34.195,21.198 34.506,21.328 34.869,21.328 C35.232,21.328 35.543,21.198 35.803,20.937 C36.062,20.677 36.192,20.365 36.192,19.999 C36.192,19.636 36.062,19.323 35.803,19.062 C35.543,18.802 35.232,18.671 34.869,18.671 Z" class="purple-svg"/>
  </symbol>
  <symbol id="3" viewBox="0 0 40 40">
    <path d="M39.989,19.999 C39.989,25.521 38.036,30.234 34.130,34.140 C30.224,38.046 25.510,40.000 19.990,40.000 C14.470,40.000 9.757,38.046 5.851,34.140 C1.945,30.234 -0.008,25.521 -0.008,19.999 C-0.008,14.479 1.945,9.765 5.851,5.859 C9.757,1.953 14.470,-0.001 19.990,-0.001 C25.510,-0.001 30.224,1.953 34.130,5.859 C38.036,9.765 39.989,14.479 39.989,19.999 ZM38.348,19.999 C38.348,14.896 36.564,10.560 32.997,6.992 C29.429,3.425 25.094,1.640 19.990,1.640 C14.886,1.640 10.550,3.425 6.984,6.992 C3.416,10.560 1.633,14.896 1.633,19.999 C1.633,25.104 3.416,29.441 6.984,33.007 C10.550,36.575 14.886,38.359 19.990,38.359 C25.094,38.359 29.429,36.575 32.997,33.007 C36.564,29.441 38.348,25.104 38.348,19.999 ZM17.452,17.500 C18.623,18.229 19.925,18.816 21.357,19.258 C22.789,19.701 24.104,20.417 25.302,21.406 C26.500,22.396 27.125,23.646 27.177,25.156 C27.177,26.614 26.656,27.851 25.615,28.866 C24.573,29.882 23.141,30.495 21.318,30.702 L21.318,33.359 L19.522,33.359 L19.522,30.468 C16.709,30.364 14.600,29.531 13.194,27.968 L14.522,26.484 L15.147,27.031 C15.616,27.448 16.331,27.851 17.295,28.242 C18.258,28.632 19.261,28.828 20.303,28.828 C21.604,28.828 22.686,28.503 23.545,27.851 C24.404,27.201 24.834,26.354 24.834,25.312 C24.834,24.167 24.248,23.202 23.076,22.422 C21.904,21.640 20.602,21.042 19.170,20.625 C17.737,20.208 16.436,19.518 15.264,18.554 C14.093,17.591 13.507,16.406 13.507,14.999 C13.507,13.646 14.053,12.435 15.147,11.367 C16.241,10.300 17.620,9.687 19.287,9.531 L19.287,6.641 L21.162,6.641 L21.162,9.531 C23.506,9.636 25.276,10.287 26.474,11.484 L25.302,13.203 L24.678,12.734 C24.260,12.421 23.635,12.109 22.803,11.796 C21.969,11.484 21.135,11.327 20.303,11.327 C18.948,11.327 17.842,11.667 16.983,12.343 C16.124,13.021 15.694,13.854 15.694,14.843 C15.694,15.886 16.280,16.771 17.452,17.500 Z" class="green-svg"/>
  </symbol>
  <symbol id="4" viewBox="0 0 43.72 40">
    <path d="M27.784,39.986 L27.784,9.986 L43.716,9.986 L43.716,39.986 L27.784,39.986 ZM42.779,10.924 L28.721,10.924 L28.721,13.736 L42.779,13.736 L42.779,10.924 ZM42.779,14.674 L28.721,14.674 L28.721,33.424 L42.779,33.424 L42.779,14.674 ZM42.779,34.361 L28.721,34.361 L28.721,39.049 L42.779,39.049 L42.779,34.361 ZM35.750,35.298 C36.140,35.298 36.472,35.436 36.746,35.709 C37.019,35.983 37.156,36.315 37.156,36.705 C37.156,37.096 37.019,37.428 36.746,37.701 C36.472,37.975 36.140,38.111 35.750,38.111 C35.359,38.111 35.027,37.975 34.754,37.701 C34.481,37.428 34.344,37.096 34.344,36.705 C34.344,36.315 34.481,35.983 34.754,35.709 C35.027,35.436 35.359,35.298 35.750,35.298 ZM35.750,37.174 C36.062,37.174 36.219,37.018 36.219,36.705 C36.219,36.393 36.062,36.236 35.750,36.236 C35.437,36.236 35.281,36.393 35.281,36.705 C35.281,37.018 35.437,37.174 35.750,37.174 ZM37.624,12.798 L33.876,12.798 L33.876,11.862 L37.624,11.862 L37.624,12.798 ZM0.005,-0.014 L27.496,-0.014 L27.496,39.986 L0.005,39.986 L0.005,-0.014 ZM1.254,38.737 L26.246,38.737 L26.246,32.486 L1.254,32.486 L1.254,38.737 ZM1.254,31.237 L26.246,31.237 L26.246,6.236 L1.254,6.236 L1.254,31.237 ZM1.254,4.986 L26.246,4.986 L26.246,1.236 L1.254,1.236 L1.254,4.986 ZM11.251,2.486 L16.249,2.486 L16.249,3.736 L11.251,3.736 L11.251,2.486 ZM13.750,37.486 C13.229,37.486 12.786,37.304 12.422,36.939 C12.058,36.576 11.876,36.132 11.876,35.611 C11.876,35.091 12.058,34.648 12.422,34.283 C12.786,33.919 13.229,33.736 13.750,33.736 C14.270,33.736 14.713,33.919 15.078,34.283 C15.442,34.648 15.625,35.091 15.625,35.611 C15.625,36.132 15.442,36.576 15.078,36.939 C14.713,37.304 14.270,37.486 13.750,37.486 ZM13.750,34.987 C13.333,34.987 13.125,35.195 13.125,35.611 C13.125,36.029 13.333,36.236 13.750,36.236 C14.166,36.236 14.375,36.029 14.375,35.611 C14.375,35.195 14.166,34.987 13.750,34.987 Z" class="yellow-svg"/>
  </symbol>
  <symbol id="5" viewBox="0 0 55 42.97">
    <path d="M46.406,42.969 L-0.000,42.969 L-0.000,6.863 L46.406,6.863 L46.406,42.969 ZM1.719,8.582 L1.719,31.471 L12.891,20.188 L25.137,34.157 L33.623,29.000 L44.687,38.563 L44.687,8.582 L1.719,8.582 ZM44.687,41.249 L44.687,40.820 L33.408,31.148 L24.707,36.306 L12.891,22.767 L1.719,33.835 L1.719,41.249 L44.687,41.249 ZM7.734,-0.014 L55.000,-0.014 L55.000,36.092 L47.266,36.092 L47.266,34.372 L53.281,34.372 L53.281,1.705 L9.453,1.705 L9.453,6.004 L7.734,6.004 L7.734,-0.014 ZM29.219,18.899 C29.219,17.466 29.719,16.249 30.723,15.245 C31.725,14.242 32.941,13.741 34.375,13.741 C35.807,13.741 37.024,14.242 38.027,15.245 C39.029,16.249 39.531,17.466 39.531,18.899 C39.531,20.332 39.029,21.550 38.027,22.552 C37.024,23.556 35.807,24.056 34.375,24.056 C32.941,24.056 31.725,23.556 30.723,22.552 C29.719,21.550 29.219,20.332 29.219,18.899 ZM30.937,18.899 C30.937,19.902 31.260,20.725 31.904,21.370 C32.549,22.015 33.371,22.337 34.375,22.337 C35.377,22.337 36.201,22.015 36.846,21.370 C37.490,20.725 37.812,19.902 37.812,18.899 C37.812,17.896 37.490,17.072 36.846,16.427 C36.201,15.782 35.377,15.460 34.375,15.460 C33.371,15.460 32.549,15.782 31.904,16.427 C31.260,17.072 30.937,17.896 30.937,18.899 Z" class="purple-svg"/>
  </symbol>
  <symbol id="6" viewBox="0 0 55 49">
    <path d="M36.094,7.207 L55.000,0.007 L55.000,41.486 L36.094,48.685 L18.906,41.808 L-0.000,49.008 L-0.000,7.529 L18.906,0.330 L36.094,7.207 ZM19.766,40.304 L35.234,46.428 L35.234,8.711 L19.766,2.587 L19.766,40.304 ZM1.719,46.428 L18.047,40.196 L18.047,2.587 L1.719,8.819 L1.719,46.428 ZM53.281,2.587 L36.953,8.819 L36.953,46.428 L53.281,40.196 L53.281,2.587 Z" class="green-svg"/>
  </symbol>
  <symbol id="7" viewBox="0 0 55 38.69">
    <path d="M47.266,38.689 L-0.000,38.689 L-0.000,7.742 L47.266,7.742 L47.266,38.689 ZM45.547,9.461 L1.719,9.461 L1.719,36.970 L45.547,36.970 L45.547,9.461 ZM9.453,6.022 L7.734,6.022 L7.734,0.006 L55.000,0.006 L55.000,30.952 L48.984,30.952 L48.984,29.233 L53.281,29.233 L53.281,1.725 L9.453,1.725 L9.453,6.022 ZM42.969,20.637 L35.234,20.637 L35.234,12.040 L42.969,12.040 L42.969,20.637 ZM41.250,13.759 L36.953,13.759 L36.953,18.917 L41.250,18.917 L41.250,13.759 ZM27.500,34.391 L29.219,34.391 L29.219,12.040 L27.500,12.040 L27.500,34.391 ZM4.297,15.478 L24.922,15.478 L24.922,13.759 L4.297,13.759 L4.297,15.478 ZM4.297,19.777 L22.344,19.777 L22.344,18.058 L4.297,18.058 L4.297,19.777 ZM4.297,24.076 L23.203,24.076 L23.203,22.356 L4.297,22.356 L4.297,24.076 Z" class="red-svg"/>
  </symbol>
  <symbol id="8" viewBox="0 0 80 80">
    <path d="M34.687,25.312 L52.500,39.062 L52.500,40.937 L34.687,54.687 L32.500,53.750 L32.500,26.250 L34.687,25.312 ZM35.000,51.249 L49.219,39.999 L35.000,28.749 L35.000,51.249 ZM80.000,39.999 C80.000,51.042 76.094,60.468 68.281,68.281 C60.469,76.093 51.040,80.000 40.000,80.000 C28.957,80.000 19.531,76.093 11.719,68.281 C3.906,60.468 -0.000,51.042 -0.000,39.999 C-0.000,28.960 3.906,19.531 11.719,11.719 C19.531,3.906 28.957,-0.000 40.000,-0.000 C51.040,-0.000 60.469,3.906 68.281,11.719 C76.094,19.531 80.000,28.960 80.000,39.999 ZM77.500,39.999 C77.500,29.792 73.852,20.937 66.562,13.437 C59.062,6.147 50.207,2.500 40.000,2.500 C29.790,2.500 20.937,6.147 13.437,13.437 C6.145,20.937 2.500,29.792 2.500,39.999 C2.500,50.210 6.145,59.062 13.437,66.562 C20.937,73.854 29.790,77.500 40.000,77.500 C50.207,77.500 59.062,73.854 66.562,66.562 C73.852,59.062 77.500,50.210 77.500,39.999 Z" class="green-svg"/>
  </symbol>
  <symbol id="9" viewBox="0 0 50.125 47.41">
    <path d="M5.885,45.437 L49.330,45.437 L49.330,47.395 L3.928,47.395 L3.928,39.465 L0.014,39.465 L0.014,37.507 L3.928,37.507 L3.928,29.576 L0.014,29.576 L0.014,27.618 L3.928,27.618 L3.928,19.785 L0.014,19.785 L0.014,17.827 L3.928,17.827 L3.928,9.897 L0.014,9.897 L0.014,7.938 L3.928,7.938 L3.928,0.007 L5.885,0.007 L5.885,30.849 L19.780,14.400 L29.564,24.289 L48.547,1.378 L50.113,2.553 L29.564,27.030 L19.780,17.239 L5.885,33.982 L5.885,45.437 Z" class="red-svg"/>
  </symbol>
  <symbol id="10" viewBox="0 0 46.188 50.06">
    <path d="M7.293,29.341 C3.802,32.862 2.058,37.099 2.058,42.052 L2.058,46.061 L24.074,46.061 L24.074,48.017 L0.003,48.017 L0.003,42.052 C0.003,37.490 1.373,33.416 4.113,29.831 C6.852,26.246 10.309,23.899 14.485,22.790 C12.528,21.748 10.929,20.282 9.690,18.391 C8.450,16.500 7.831,14.381 7.831,12.035 C7.831,8.711 9.020,5.875 11.402,3.529 C13.783,1.182 16.604,0.008 19.866,0.008 C23.193,0.008 26.031,1.182 28.379,3.529 C30.728,5.875 31.902,8.711 31.902,12.035 C31.902,14.381 31.298,16.518 30.092,18.439 C28.884,20.363 27.269,21.812 25.248,22.790 C28.639,23.638 31.672,25.399 34.348,28.070 L31.315,28.070 C27.988,25.399 24.236,24.061 20.062,24.061 C15.038,24.061 10.782,25.821 7.293,29.341 ZM20.062,22.008 C22.866,22.008 25.248,21.047 27.205,19.123 C29.162,17.202 30.141,14.839 30.141,12.035 C30.141,9.233 29.162,6.870 27.205,4.946 C25.248,3.025 22.866,2.062 20.062,2.062 C17.257,2.062 14.891,3.025 12.968,4.946 C11.043,6.870 10.082,9.233 10.082,12.035 C10.082,14.839 11.043,17.202 12.968,19.123 C14.891,21.047 17.257,22.008 20.062,22.008 ZM46.188,44.106 L40.121,44.106 L40.121,50.070 L38.164,50.070 L38.164,44.106 L32.097,44.106 L32.097,42.052 L38.164,42.052 L38.164,36.088 L40.121,36.088 L40.121,42.052 L46.188,42.052 L46.188,44.106 Z" class="green-svg"/>
  </symbol>
  <symbol id="11" viewBox="0 0 50.12 42.84">
    <path d="M50.111,13.306 C50.111,17.008 48.805,20.171 46.197,22.790 L25.061,42.842 L3.926,22.987 C1.316,20.301 0.012,17.089 0.012,13.354 C0.012,9.619 1.316,6.441 3.926,3.820 C6.470,1.264 9.731,-0.014 13.711,-0.014 C17.429,-0.014 20.560,1.264 23.104,3.820 C24.147,5.131 24.866,6.114 25.257,6.769 C25.778,5.721 26.495,4.738 27.410,3.820 C29.954,1.264 33.085,-0.014 36.803,-0.014 C40.521,-0.014 43.653,1.264 46.197,3.820 C48.805,6.441 50.111,9.604 50.111,13.306 ZM47.958,13.060 C47.958,9.914 46.848,7.228 44.631,5.000 C42.543,2.773 39.869,1.658 36.607,1.658 C33.411,1.658 30.703,2.773 28.486,5.000 C27.963,5.655 27.410,6.409 26.823,7.260 L25.061,10.209 L23.300,7.260 C22.909,6.606 22.354,5.852 21.637,5.000 C19.418,2.773 16.711,1.658 13.515,1.658 C10.318,1.658 7.579,2.837 5.296,5.196 C3.078,7.424 1.969,10.111 1.969,13.256 C1.969,16.467 3.078,19.188 5.296,21.414 L25.061,40.385 L44.827,21.414 C46.914,19.318 47.958,16.533 47.958,13.060 L47.958,13.060 Z" class="purple-svg"/>
  </symbol>
  <symbol id="12" viewBox="0 0 50.06 44.34">
    <path d="M50.050,17.367 L48.095,17.367 L48.095,44.346 L1.962,44.346 L1.962,17.367 L0.007,17.367 L0.007,9.617 L15.938,9.617 C14.961,8.506 14.472,7.230 14.472,5.791 C14.472,4.157 15.025,2.784 16.134,1.671 C17.241,0.559 18.609,0.003 20.239,0.003 C22.389,0.003 23.985,0.821 25.028,2.455 C26.070,0.821 27.667,0.003 29.817,0.003 C31.446,0.003 32.814,0.559 33.923,1.671 C35.030,2.784 35.584,4.157 35.584,5.791 C35.584,7.230 35.095,8.506 34.118,9.617 L50.050,9.617 L50.050,17.367 ZM27.130,3.044 C26.380,3.829 26.006,4.745 26.006,5.791 L26.006,9.617 L29.817,9.617 C30.859,9.617 31.772,9.241 32.554,8.489 C33.336,7.738 33.727,6.838 33.727,5.791 C33.727,4.680 33.351,3.748 32.603,2.995 C31.853,2.244 30.925,1.866 29.817,1.866 C28.774,1.866 27.878,2.259 27.130,3.044 ZM17.502,8.489 C18.284,9.241 19.196,9.617 20.239,9.617 L24.051,9.617 L24.051,5.791 C24.051,4.745 23.675,3.829 22.927,3.044 C22.177,2.259 21.281,1.866 20.239,1.866 C19.130,1.866 18.202,2.244 17.453,2.995 C16.703,3.748 16.329,4.680 16.329,5.791 C16.329,6.838 16.720,7.738 17.502,8.489 ZM1.962,15.405 L24.051,15.405 L24.051,11.579 L1.962,11.579 L1.962,15.405 ZM3.819,42.482 L24.051,42.482 L24.051,17.367 L3.819,17.367 L3.819,42.482 ZM46.238,17.367 L26.006,17.367 L26.006,42.482 L46.238,42.482 L46.238,17.367 ZM48.095,11.579 L26.006,11.579 L26.006,15.405 L48.095,15.405 L48.095,11.579 Z" class="yellow-svg"/>
  </symbol>

  <symbol id="13" viewBox="0 0 35.34 54.9">
    <path d="M32.662,27.843 C34.457,30.688 35.355,33.823 35.355,37.252 C35.355,42.084 33.617,46.233 30.144,49.699 C26.670,53.168 22.513,54.901 17.674,54.901 C12.833,54.901 8.676,53.168 5.203,49.699 C1.729,46.233 -0.007,42.084 -0.007,37.252 C-0.007,33.823 0.889,30.688 2.686,27.843 C4.481,24.999 6.861,22.875 9.829,21.472 C6.550,13.603 4.911,8.966 4.911,7.564 L4.911,-0.034 L30.437,-0.034 L30.437,7.564 C30.437,8.655 28.798,13.290 25.519,21.472 C28.485,22.875 30.865,24.999 32.662,27.843 ZM11.585,20.654 C13.614,19.953 15.643,19.602 17.674,19.602 C19.782,19.602 21.772,19.953 23.646,20.654 C26.846,13.173 28.447,8.811 28.447,7.564 L28.447,1.953 L18.611,1.953 L18.611,15.394 L16.620,15.394 L16.620,1.953 L6.901,1.953 L6.901,7.564 C6.901,8.577 8.462,12.940 11.585,20.654 L11.585,20.654 ZM33.364,37.252 C33.364,32.888 31.822,29.187 28.739,26.147 C25.655,23.109 21.966,21.589 17.674,21.589 C13.380,21.589 9.691,23.109 6.608,26.147 C3.524,29.187 1.983,32.888 1.983,37.252 C1.983,41.616 3.524,45.317 6.608,48.355 C9.691,51.395 13.380,52.914 17.674,52.914 C21.966,52.914 25.655,51.395 28.739,48.355 C31.822,45.317 33.364,41.616 33.364,37.252 ZM29.500,37.252 C29.500,40.525 28.348,43.311 26.046,45.609 C23.743,47.908 20.953,49.057 17.674,49.057 C14.395,49.057 11.603,47.908 9.302,45.609 C6.998,43.311 5.847,40.525 5.847,37.252 C5.847,33.979 6.998,31.194 9.302,28.895 C11.603,26.597 14.395,25.447 17.674,25.447 C20.953,25.447 23.743,26.597 26.046,28.895 C28.348,31.194 29.500,33.979 29.500,37.252 ZM27.510,37.252 C27.510,34.603 26.553,32.304 24.641,30.356 C22.727,28.409 20.405,27.433 17.674,27.433 C14.940,27.433 12.619,28.409 10.707,30.356 C8.793,32.304 7.838,34.603 7.838,37.252 C7.838,39.901 8.793,42.201 10.707,44.148 C12.619,46.097 14.940,47.070 17.674,47.070 C20.405,47.070 22.727,46.097 24.641,44.148 C26.553,42.201 27.510,39.901 27.510,37.252 Z" class="green-svg"/>
  </symbol>
  <symbol id="14" viewBox="0 0 47.969 47.9">
    <path d="M47.956,-0.028 L47.956,47.895 L0.005,47.895 L0.005,-0.028 L47.956,-0.028 ZM1.993,1.960 L1.993,10.959 L45.968,10.959 L45.968,1.960 L1.993,1.960 ZM45.968,45.907 L45.968,12.946 L1.993,12.946 L1.993,45.907 L45.968,45.907 ZM14.975,8.037 L18.016,8.037 L18.016,4.998 L14.975,4.998 L14.975,8.037 ZM29.945,8.037 L32.986,8.037 L32.986,4.998 L29.945,4.998 L29.945,8.037 ZM17.198,19.726 L18.952,19.726 L18.952,35.388 L16.847,35.388 L16.847,24.284 L12.987,24.284 L12.987,22.647 L13.338,22.647 C14.350,22.571 15.034,22.512 15.385,22.472 C15.736,22.434 16.105,22.220 16.496,21.830 C16.885,21.441 17.119,20.856 17.198,20.076 L17.198,19.726 ZM32.811,26.271 C33.785,27.285 34.273,28.608 34.273,30.245 C34.273,31.805 33.726,33.108 32.635,34.161 C31.543,35.213 30.256,35.738 28.776,35.738 C27.215,35.738 25.949,35.271 24.975,34.336 C23.999,33.400 23.513,32.194 23.513,30.712 L23.513,30.362 L25.618,30.362 L25.618,30.712 C25.618,31.648 25.929,32.408 26.554,32.992 C27.177,33.577 27.957,33.869 28.893,33.869 C29.905,33.869 30.706,33.499 31.290,32.758 C31.875,32.019 32.168,31.142 32.168,30.128 C32.168,29.117 31.855,28.279 31.232,27.616 C30.607,26.954 29.788,26.622 28.776,26.622 C27.449,26.622 26.437,27.168 25.735,28.258 L25.618,28.375 L23.864,28.375 L25.501,19.959 L33.571,19.959 L33.571,21.947 L27.022,21.947 L26.320,25.570 C27.098,25.025 27.957,24.751 28.893,24.751 C30.530,24.751 31.835,25.259 32.811,26.271 Z" class="red-svg"/>
  </symbol>
  <symbol id="15" viewBox="0 0 51.969 46.7">
    <path d="M27.031,35.840 L27.031,39.697 L36.398,44.957 L35.461,46.710 L25.978,41.450 L16.494,46.710 L15.557,44.957 L24.924,39.697 L24.924,35.840 L-0.015,35.840 L-0.015,-0.043 L51.970,-0.043 L51.970,35.840 L27.031,35.840 ZM1.976,33.853 L49.979,33.853 L49.979,1.944 L1.976,1.944 L1.976,33.853 ZM29.022,7.671 L30.895,8.256 L25.392,26.723 L18.953,17.840 L14.738,26.139 L9.118,14.684 L5.956,26.372 L3.966,25.905 L8.532,9.190 L14.738,21.697 L18.718,13.982 L24.690,22.282 L29.022,7.671 ZM44.242,13.632 C45.413,14.801 45.999,16.244 45.999,17.957 C45.999,19.593 45.413,20.995 44.242,22.164 C43.072,23.333 41.626,23.918 39.910,23.918 C38.271,23.918 36.866,23.333 35.695,22.164 C34.525,20.995 33.939,19.593 33.939,17.957 C33.939,16.244 34.525,14.801 35.695,13.632 C36.866,12.463 38.271,11.879 39.910,11.879 C41.626,11.879 43.072,12.463 44.242,13.632 ZM42.779,20.762 C43.599,19.984 44.008,19.049 44.008,17.957 C44.008,16.866 43.599,15.932 42.779,15.151 C41.959,14.374 41.003,13.982 39.910,13.982 C38.816,13.982 37.880,14.374 37.100,15.151 C36.319,15.932 35.930,16.866 35.930,17.957 C35.930,19.049 36.339,19.984 37.159,20.762 C37.979,21.542 38.895,21.931 39.910,21.931 C41.003,21.931 41.959,21.542 42.779,20.762 Z" class="yellow-svg"/>
  </symbol>
  <symbol id="16" viewBox="0 0 48 48">
    <path d="M0.007,28.010 L20.030,28.010 L20.030,48.047 L0.007,48.047 L0.007,28.010 ZM1.997,46.054 L18.039,46.054 L18.039,30.003 L1.997,30.003 L1.997,46.054 ZM37.945,11.490 L23.308,26.253 L21.903,24.847 L36.657,10.084 L24.011,10.084 L24.011,8.092 L39.936,8.092 L39.936,24.027 L37.945,24.027 L37.945,11.490 ZM48.015,0.008 L48.015,48.047 L24.011,48.047 L24.011,46.054 L46.025,46.054 L46.025,1.999 L1.997,1.999 L1.997,24.027 L0.007,24.027 L0.007,0.008 L48.015,0.008 Z" class="yellow-svg"/>
  </symbol>
  <symbol id="17" viewBox="0 0 45.843 48">
    <path d="M44.730,8.268 C43.988,9.167 43.034,9.733 41.864,9.967 L41.864,44.063 L39.876,44.063 L39.876,9.967 C38.707,9.733 37.751,9.147 37.011,8.209 C36.269,7.272 35.900,6.217 35.900,5.046 C35.900,3.640 36.386,2.450 37.362,1.472 C38.336,0.496 39.525,0.008 40.929,0.008 C42.253,0.008 43.403,0.496 44.379,1.472 C45.353,2.450 45.841,3.640 45.841,5.046 C45.841,6.296 45.470,7.371 44.730,8.268 ZM42.975,7.213 C43.560,6.627 43.852,5.906 43.852,5.046 C43.852,4.187 43.560,3.464 42.975,2.878 C42.391,2.292 41.707,1.999 40.929,1.999 C40.070,1.999 39.350,2.292 38.765,2.878 C38.180,3.464 37.888,4.187 37.888,5.046 C37.888,5.906 38.180,6.627 38.765,7.213 C39.350,7.799 40.070,8.092 40.929,8.092 C41.707,8.092 42.391,7.799 42.975,7.213 ZM8.825,39.844 C9.565,40.782 9.936,41.836 9.936,43.008 C9.936,44.414 9.448,45.606 8.474,46.582 C7.498,47.560 6.310,48.047 4.907,48.047 C3.580,48.047 2.431,47.560 1.457,46.582 C0.481,45.606 -0.005,44.414 -0.005,43.008 C-0.005,41.760 0.364,40.685 1.106,39.786 C1.846,38.889 2.802,38.322 3.971,38.087 L3.971,3.991 L5.959,3.991 L5.959,38.087 C7.129,38.322 8.083,38.907 8.825,39.844 ZM7.071,45.176 C7.655,44.590 7.948,43.869 7.948,43.008 C7.948,42.150 7.655,41.426 7.071,40.840 C6.486,40.255 5.764,39.962 4.907,39.962 C4.127,39.962 3.445,40.255 2.860,40.840 C2.276,41.426 1.983,42.150 1.983,43.008 C1.983,43.869 2.276,44.590 2.860,45.176 C3.445,45.762 4.127,46.054 4.907,46.054 C5.764,46.054 6.486,45.762 7.071,45.176 ZM26.836,20.863 C27.576,21.801 27.947,22.855 27.947,24.027 C27.947,25.199 27.576,26.253 26.836,27.190 C26.094,28.128 25.140,28.714 23.970,28.948 L23.970,44.063 L21.865,44.063 L21.865,28.948 C20.696,28.714 19.740,28.128 19.000,27.190 C18.258,26.253 17.889,25.199 17.889,24.027 C17.889,22.855 18.258,21.801 19.000,20.863 C19.740,19.926 20.696,19.340 21.865,19.105 L21.865,3.991 L23.970,3.991 L23.970,19.105 C25.140,19.340 26.094,19.926 26.836,20.863 ZM25.959,24.027 C25.959,23.247 25.646,22.544 25.023,21.918 C24.398,21.293 23.696,20.981 22.918,20.981 C22.138,20.981 21.436,21.293 20.813,21.918 C20.188,22.544 19.877,23.247 19.877,24.027 C19.877,24.809 20.188,25.511 20.813,26.136 C21.436,26.762 22.138,27.073 22.918,27.073 C23.696,27.073 24.398,26.762 25.023,26.136 C25.646,25.511 25.959,24.809 25.959,24.027 Z" class="green-svg"/>
  </symbol>
  <symbol id="18" viewBox="0 0 48 48">
    <path d="M48.011,0.008 L48.011,48.047 L0.007,48.047 L0.007,0.008 L48.011,0.008 ZM1.997,1.999 L1.997,39.376 L7.851,32.580 L13.822,36.564 L23.774,22.503 L32.790,29.651 L46.020,10.669 L46.020,1.999 L1.997,1.999 ZM46.020,46.054 L46.020,14.185 L33.258,32.580 L24.243,25.433 L14.291,39.259 L8.202,35.275 L1.997,42.422 L1.997,46.054 L46.020,46.054 Z" class="red-svg"/>
  </symbol>
  <symbol id="19" viewBox="0 0 30.03 25.3">
    <path d="M29.913,3.828 C29.600,4.453 29.307,4.882 29.034,5.117 C28.486,5.469 28.067,5.928 27.774,6.493 C27.481,7.060 27.285,7.569 27.188,8.017 C27.090,8.467 27.002,9.062 26.925,9.804 C26.534,13.437 25.098,16.660 22.618,19.472 C20.137,22.285 17.119,24.082 13.565,24.863 C8.995,25.879 4.776,25.215 0.909,22.870 C0.870,22.833 0.762,22.773 0.587,22.695 C0.411,22.617 0.303,22.559 0.264,22.519 C0.225,22.480 0.156,22.392 0.059,22.255 C-0.038,22.119 -0.029,21.992 0.089,21.874 C0.127,21.719 0.196,21.611 0.294,21.553 C0.391,21.493 0.489,21.474 0.587,21.493 C0.684,21.514 0.801,21.533 0.938,21.553 C1.075,21.572 1.182,21.581 1.260,21.581 C3.525,21.816 5.323,21.660 6.651,21.113 C7.237,20.957 7.589,21.054 7.706,21.406 C7.784,21.757 7.549,22.012 7.003,22.168 C6.651,22.285 6.133,22.431 5.450,22.607 C4.766,22.783 4.229,22.930 3.839,23.046 C6.065,23.945 8.194,24.335 10.225,24.218 C14.522,23.984 18.037,22.510 20.772,19.795 C23.506,17.080 25.186,13.828 25.811,10.039 C25.889,9.649 25.928,9.375 25.928,9.219 C25.928,9.140 25.928,8.945 25.928,8.632 C25.928,8.320 25.928,8.115 25.928,8.017 C25.928,7.920 25.938,7.724 25.958,7.431 C25.977,7.138 26.016,6.934 26.075,6.816 C26.134,6.699 26.201,6.533 26.280,6.318 C26.358,6.104 26.465,5.937 26.602,5.820 C26.739,5.703 26.904,5.576 27.100,5.439 C27.295,5.302 27.510,5.176 27.745,5.058 C27.666,5.019 27.588,4.961 27.510,4.882 L27.393,4.824 C27.276,4.824 27.090,4.863 26.837,4.941 C26.582,5.019 26.368,5.049 26.192,5.029 C26.016,5.010 25.870,4.882 25.753,4.648 C25.635,4.413 25.625,4.229 25.723,4.092 C25.820,3.955 25.987,3.819 26.221,3.681 C26.456,3.545 26.611,3.438 26.690,3.359 L27.042,2.832 L26.866,2.655 C25.733,3.124 24.561,2.929 23.350,2.070 C21.670,0.937 19.923,0.860 18.106,1.835 C16.290,2.813 15.342,4.336 15.264,6.405 C15.186,7.617 15.049,8.310 14.854,8.486 C14.658,8.662 13.936,8.632 12.686,8.398 C9.288,7.812 6.007,6.054 2.842,3.124 C2.334,3.907 2.188,4.844 2.403,5.937 C2.617,7.031 3.115,8.008 3.897,8.867 C3.975,8.945 4.132,9.052 4.366,9.189 C4.600,9.326 4.737,9.444 4.776,9.541 C4.815,9.639 4.815,9.825 4.776,10.097 C4.659,10.331 4.512,10.469 4.337,10.508 C4.161,10.547 3.926,10.517 3.634,10.419 C3.341,10.322 3.135,10.273 3.018,10.273 C2.784,10.195 2.569,10.137 2.374,10.097 C2.725,12.129 3.818,13.554 5.655,14.374 L6.124,14.492 C6.475,14.571 6.690,14.668 6.768,14.785 C6.846,14.902 6.865,15.059 6.827,15.254 C6.748,15.605 6.241,15.820 5.303,15.898 L4.717,16.015 C5.421,17.460 6.612,18.398 8.292,18.828 L8.702,18.828 C8.740,18.828 8.858,18.848 9.053,18.886 C9.248,18.925 9.385,18.965 9.464,19.004 C9.541,19.043 9.619,19.111 9.698,19.208 C9.776,19.306 9.795,19.453 9.757,19.648 C9.678,20.079 9.268,20.195 8.526,20.000 C6.572,19.648 5.108,18.691 4.132,17.128 C4.092,17.090 4.014,16.982 3.897,16.807 C3.780,16.631 3.701,16.504 3.663,16.426 C3.623,16.348 3.565,16.231 3.487,16.074 C3.408,15.918 3.370,15.781 3.370,15.664 C3.370,15.546 3.379,15.410 3.399,15.254 C3.418,15.098 3.467,14.941 3.546,14.785 C3.546,14.590 3.555,14.472 3.575,14.434 C3.594,14.395 3.506,14.297 3.311,14.140 L3.077,13.965 C2.061,12.949 1.436,11.699 1.202,10.215 C1.202,10.176 1.182,10.058 1.143,9.863 C1.104,9.668 1.085,9.551 1.085,9.511 C1.085,9.473 1.085,9.385 1.085,9.247 C1.085,9.111 1.114,9.013 1.173,8.955 C1.231,8.896 1.319,8.838 1.436,8.779 C1.553,8.720 1.709,8.672 1.905,8.632 C2.257,8.594 2.295,8.398 2.022,8.046 C1.943,7.968 1.905,7.910 1.905,7.870 C1.045,6.113 0.967,4.278 1.671,2.363 C1.905,1.699 2.149,1.348 2.403,1.308 C2.657,1.270 3.018,1.504 3.487,2.011 C6.026,4.785 9.014,6.543 12.452,7.285 C13.038,7.402 13.448,7.393 13.682,7.255 C13.917,7.119 14.053,6.758 14.092,6.172 C14.444,3.750 15.596,1.973 17.550,0.839 C19.502,-0.293 21.436,-0.293 23.350,0.839 C24.991,1.777 26.534,1.777 27.979,0.839 C28.486,0.605 28.858,0.605 29.092,0.839 C29.287,1.035 29.248,1.387 28.975,1.894 C28.936,2.051 28.858,2.246 28.741,2.480 C28.624,2.715 28.545,2.890 28.507,3.008 C28.662,3.164 28.877,3.184 29.151,3.066 C29.268,3.027 29.346,3.008 29.385,3.008 L29.385,3.008 C30.010,3.008 30.186,3.281 29.913,3.828 L29.913,3.828 Z" class="white-svg"/>
  </symbol>
  <symbol id="20" viewBox="0 0 30 30">
    <path d="M30.000,27.104 C30.000,28.159 29.785,28.901 29.355,29.331 C28.925,29.761 28.184,29.995 27.129,30.034 L2.812,30.034 C0.976,30.034 0.038,29.117 -0.000,27.280 L-0.000,21.304 C-0.000,20.600 0.214,20.249 0.645,20.249 C0.996,20.289 1.172,20.640 1.172,21.304 L1.172,26.987 C1.172,28.238 1.777,28.862 2.988,28.862 L27.012,28.862 C28.222,28.862 28.828,28.276 28.828,27.104 L28.828,17.670 C28.828,17.241 28.749,16.938 28.594,16.762 C28.437,16.587 28.163,16.519 27.773,16.557 C27.460,16.636 27.167,16.636 26.895,16.557 C25.605,16.363 24.580,16.469 23.818,16.880 C23.057,17.290 22.461,18.139 22.031,19.428 C21.640,20.796 20.693,21.910 19.189,22.769 C17.685,23.628 16.230,23.979 14.824,23.823 C13.066,23.628 11.523,23.003 10.195,21.948 C8.867,20.893 8.007,19.585 7.617,18.022 C7.343,16.929 6.680,16.440 5.625,16.557 L1.289,16.557 C0.429,16.636 -0.000,16.265 -0.000,15.444 L-0.000,2.319 C0.078,0.796 0.996,0.034 2.754,0.034 L23.437,0.034 L27.246,0.034 C29.082,0.034 30.000,0.952 30.000,2.788 L30.000,15.034 L30.000,27.104 ZM19.951,20.571 C21.220,19.302 21.855,17.710 21.855,15.796 C21.855,13.960 21.220,12.427 19.951,11.196 C18.681,9.966 17.070,9.312 15.117,9.234 C13.359,9.195 11.807,9.859 10.459,11.226 C9.111,12.593 8.437,14.155 8.437,15.913 C8.437,17.710 9.131,19.292 10.518,20.659 C11.904,22.027 13.456,22.632 15.176,22.476 C17.089,22.476 18.681,21.841 19.951,20.571 ZM28.564,15.034 C28.779,14.839 28.867,14.487 28.828,13.980 C28.749,10.308 28.749,6.655 28.828,3.023 C28.828,2.359 28.682,1.880 28.389,1.586 C28.096,1.294 27.598,1.168 26.895,1.206 L15.117,1.206 L2.930,1.206 C2.304,1.206 1.855,1.333 1.582,1.586 C1.308,1.841 1.172,2.281 1.172,2.905 L1.172,14.096 C1.172,14.565 1.260,14.879 1.436,15.034 C1.611,15.190 1.913,15.249 2.344,15.210 C4.414,15.210 5.586,15.230 5.859,15.269 C6.406,15.385 6.797,15.347 7.031,15.151 C7.266,14.956 7.441,14.585 7.559,14.038 C7.988,12.242 8.945,10.767 10.430,9.614 C11.914,8.462 13.535,7.925 15.293,8.003 C17.051,8.081 18.623,8.647 20.010,9.702 C21.396,10.757 22.324,12.183 22.793,13.980 C22.988,14.879 23.496,15.308 24.316,15.269 C25.254,15.151 26.309,15.132 27.480,15.210 C27.988,15.288 28.349,15.230 28.564,15.034 ZM26.484,3.901 C26.719,4.175 26.836,4.995 26.836,6.362 C26.836,7.651 26.679,8.462 26.367,8.793 C26.054,9.126 25.292,9.292 24.082,9.292 C22.831,9.292 22.040,9.116 21.709,8.765 C21.377,8.413 21.211,7.554 21.211,6.186 C21.211,4.858 21.347,4.077 21.621,3.843 C21.894,3.608 22.773,3.491 24.258,3.491 C25.507,3.491 26.250,3.629 26.484,3.901 ZM25.723,6.245 C25.683,5.581 25.556,5.122 25.342,4.868 C25.127,4.614 24.706,4.566 24.082,4.721 C23.457,4.604 23.007,4.654 22.734,4.868 C22.461,5.083 22.343,5.522 22.383,6.186 C22.421,6.889 22.529,7.379 22.705,7.651 C22.881,7.925 23.300,8.042 23.965,8.003 C24.629,7.964 25.087,7.827 25.342,7.593 C25.595,7.358 25.723,6.910 25.723,6.245 L25.723,6.245 ZM17.637,19.722 C17.597,19.878 17.607,19.985 17.666,20.043 C17.725,20.103 17.685,20.171 17.549,20.249 C17.411,20.327 17.334,20.376 17.314,20.395 C17.294,20.415 17.206,20.464 17.051,20.542 L16.816,20.600 C15.917,20.874 15.312,20.991 15.000,20.952 C13.437,20.952 12.109,20.278 11.016,18.931 C9.922,17.583 9.589,16.168 10.020,14.682 C10.020,14.644 10.039,14.546 10.078,14.389 C10.117,14.234 10.156,14.117 10.195,14.038 C10.234,13.960 10.292,13.892 10.371,13.832 C10.449,13.774 10.566,13.765 10.723,13.804 C11.113,13.843 11.269,14.214 11.191,14.917 C10.918,16.557 11.328,17.837 12.422,18.754 C13.515,19.673 14.863,19.918 16.465,19.487 C17.129,19.253 17.520,19.331 17.637,19.722 L17.637,19.722 Z" class="white-svg"/>
  </symbol>
  <symbol id="21" viewBox="0 0 29.75 30">
    <path d="M29.050,0.737 C29.518,1.206 29.753,2.046 29.753,3.257 C29.753,13.686 29.733,21.518 29.694,26.753 C29.694,27.964 29.450,28.813 28.962,29.301 C28.473,29.791 27.623,30.034 26.413,30.034 L16.745,30.034 C16.080,30.034 15.612,29.916 15.339,29.682 C15.065,29.448 14.948,28.999 14.987,28.335 C14.987,27.202 14.987,25.513 14.987,23.266 C14.987,21.021 15.006,19.331 15.046,18.198 C15.046,17.612 14.948,17.212 14.753,16.997 C14.557,16.783 14.186,16.695 13.640,16.734 C13.092,16.812 12.272,16.812 11.179,16.734 C10.710,16.734 10.475,16.557 10.475,16.205 C10.475,15.816 10.710,15.620 11.179,15.620 C11.374,15.620 11.656,15.620 12.028,15.620 C12.399,15.620 12.731,15.620 13.024,15.620 C13.317,15.620 13.600,15.620 13.874,15.620 C14.343,15.659 14.665,15.581 14.841,15.385 C15.016,15.190 15.084,14.879 15.046,14.448 C14.967,13.316 14.967,12.222 15.046,11.167 C15.084,9.917 15.494,8.989 16.276,8.384 C17.057,7.778 18.073,7.574 19.323,7.769 C20.299,7.885 21.178,8.140 21.960,8.530 C21.998,8.530 22.038,8.550 22.077,8.589 C22.584,8.823 22.780,9.097 22.663,9.409 C22.467,9.839 22.057,9.917 21.432,9.643 C20.378,9.174 19.401,8.940 18.503,8.940 C17.331,8.940 16.628,9.507 16.393,10.639 C16.276,11.069 16.208,11.519 16.188,11.987 C16.168,12.455 16.168,12.984 16.188,13.569 C16.208,14.155 16.218,14.605 16.218,14.917 C16.218,14.995 16.218,15.074 16.218,15.151 C16.256,15.464 16.569,15.620 17.155,15.620 L21.667,15.620 C22.331,15.620 22.663,15.816 22.663,16.205 C22.663,16.753 22.311,16.988 21.608,16.909 C20.671,16.909 19.186,16.871 17.155,16.792 C16.764,16.753 16.501,16.812 16.364,16.968 C16.227,17.124 16.159,17.398 16.159,17.788 C16.237,21.030 16.237,24.292 16.159,27.573 C16.159,28.316 16.511,28.687 17.214,28.687 C18.151,28.687 19.127,28.697 20.143,28.716 C21.159,28.736 22.291,28.765 23.542,28.804 C24.792,28.843 25.768,28.862 26.472,28.862 C27.252,28.862 27.761,28.736 27.995,28.481 C28.229,28.228 28.366,27.691 28.405,26.870 L28.581,3.667 C28.581,2.612 28.464,1.978 28.229,1.762 C27.995,1.549 27.330,1.421 26.237,1.382 C21.198,1.226 13.600,1.147 3.444,1.147 C2.507,1.147 1.940,1.255 1.745,1.470 C1.549,1.685 1.413,2.281 1.335,3.257 C1.335,3.296 1.276,10.991 1.159,26.342 C1.159,27.397 1.285,28.042 1.540,28.276 C1.794,28.511 2.428,28.627 3.444,28.627 C5.709,28.627 7.389,28.648 8.483,28.687 C9.304,28.687 9.733,28.882 9.772,29.272 C9.772,29.741 9.362,29.976 8.542,29.976 L2.624,29.976 C0.944,29.897 0.065,28.980 -0.013,27.222 L-0.013,15.093 L0.046,15.093 L0.046,3.139 C0.046,1.967 0.280,1.147 0.749,0.678 C1.218,0.209 2.018,-0.004 3.151,0.034 L26.530,0.034 C27.740,0.034 28.581,0.269 29.050,0.737 Z" class="white-svg"/>
  </symbol>
  <symbol id="22" viewBox="0 0 27.88 30">
    <path d="M17.221,22.651 C17.533,24.643 17.182,26.304 16.167,27.631 C15.463,28.530 14.409,29.175 13.002,29.565 C11.986,29.800 11.225,29.936 10.717,29.976 L10.483,29.976 L7.788,29.976 C7.553,29.976 7.202,29.936 6.733,29.858 C5.131,29.624 3.862,29.312 2.924,28.920 C1.635,28.296 0.756,27.418 0.288,26.284 C0.131,25.737 0.033,25.327 -0.005,25.054 L-0.005,23.881 C0.033,23.804 0.053,23.726 0.053,23.647 C0.092,23.140 0.248,22.632 0.522,22.124 C0.639,21.889 0.717,21.753 0.756,21.714 C0.951,21.636 1.156,21.772 1.372,22.124 C1.586,22.476 1.635,22.788 1.518,23.061 C1.284,23.530 1.205,24.214 1.284,25.112 C1.439,26.206 2.025,27.027 3.042,27.573 C3.627,27.924 4.252,28.159 4.917,28.276 C6.283,28.627 7.983,28.765 10.014,28.687 C11.069,28.687 12.006,28.550 12.827,28.276 C13.959,27.964 14.819,27.397 15.405,26.577 C15.834,25.913 16.049,25.015 16.049,23.881 C16.088,22.554 15.600,21.441 14.585,20.542 C14.506,20.464 14.409,20.424 14.292,20.424 C12.026,20.152 10.092,20.015 8.491,20.015 C6.967,20.093 5.737,20.269 4.799,20.542 C4.721,20.542 4.614,20.562 4.477,20.600 C4.340,20.640 4.233,20.679 4.155,20.718 C4.038,20.718 3.910,20.640 3.774,20.483 C3.637,20.327 3.540,20.171 3.481,20.015 C3.422,19.859 3.432,19.742 3.510,19.663 C5.229,18.999 7.572,18.706 10.542,18.784 C10.697,18.784 10.952,18.804 11.303,18.843 C11.655,18.882 11.928,18.901 12.124,18.901 C12.006,18.784 11.810,18.618 11.538,18.403 C11.264,18.189 11.069,18.042 10.952,17.964 C9.975,17.143 9.604,16.187 9.838,15.093 C9.838,15.014 9.818,14.956 9.780,14.917 L9.663,14.917 C8.764,15.074 7.885,15.074 7.026,14.917 C4.331,14.448 2.514,12.964 1.577,10.463 C1.108,9.253 0.971,7.866 1.167,6.304 C1.362,4.937 1.772,3.843 2.397,3.023 C3.335,1.695 4.799,0.796 6.792,0.327 C6.987,0.288 7.250,0.239 7.583,0.181 C7.914,0.122 8.158,0.093 8.315,0.093 C10.776,-0.063 13.432,-0.063 16.284,0.093 C16.439,0.093 16.557,0.230 16.635,0.503 C16.713,0.699 16.694,0.884 16.577,1.059 C16.460,1.235 16.284,1.323 16.049,1.323 L13.295,1.323 C13.178,1.323 13.080,1.343 13.002,1.382 C13.080,1.421 13.187,1.499 13.325,1.616 C13.461,1.734 13.549,1.831 13.588,1.909 C15.033,3.277 15.834,4.780 15.991,6.420 C16.186,8.921 15.600,10.932 14.233,12.455 C13.881,12.808 13.237,13.296 12.299,13.920 C11.986,14.155 11.752,14.351 11.596,14.507 C10.814,15.171 10.756,15.894 11.420,16.674 C11.733,17.026 12.124,17.339 12.592,17.612 C14.311,18.784 15.209,19.409 15.288,19.487 L15.288,19.487 C16.381,20.424 17.025,21.480 17.221,22.651 L17.221,22.651 ZM13.471,11.343 C14.135,10.679 14.564,9.643 14.760,8.237 C14.916,6.753 14.721,5.562 14.174,4.663 C13.120,2.788 11.713,1.714 9.956,1.440 C8.315,1.206 6.752,1.461 5.268,2.202 C4.018,2.828 3.197,3.764 2.807,5.015 C2.494,5.757 2.338,6.694 2.338,7.827 C2.338,8.921 2.611,9.957 3.159,10.932 C4.291,12.847 6.108,13.804 8.608,13.804 C10.249,13.765 11.869,12.945 13.471,11.343 L13.471,11.343 ZM27.885,14.214 L27.885,14.565 C27.729,14.879 27.436,15.034 27.006,15.034 L23.901,15.034 C23.627,15.034 23.491,15.151 23.491,15.385 L23.491,18.550 C23.491,19.135 23.295,19.428 22.905,19.428 C22.475,19.351 22.260,19.058 22.260,18.550 L22.260,15.327 C22.260,15.132 22.162,15.034 21.967,15.034 L18.745,15.034 C18.197,15.034 17.924,14.839 17.924,14.448 C17.924,14.018 18.197,13.804 18.745,13.804 L21.909,13.804 C22.143,13.804 22.260,13.667 22.260,13.393 L22.260,10.346 L22.260,9.995 C22.338,9.566 22.553,9.390 22.905,9.467 C23.295,9.467 23.491,9.643 23.491,9.995 L23.491,11.459 C23.491,11.616 23.491,11.831 23.491,12.104 C23.491,12.378 23.491,12.631 23.491,12.866 C23.491,13.100 23.491,13.316 23.491,13.511 C23.491,13.707 23.608,13.804 23.842,13.804 L27.006,13.804 C27.396,13.804 27.689,13.941 27.885,14.214 L27.885,14.214 Z" class="white-svg"/>
  </symbol>
</svg>