<svg xmlns="http://www.w3.org/2000/svg" viewBox="0 0 39.75 39.938">
  <path d="M39.736,19.976 C39.736,25.478 37.791,30.183 33.906,34.090 C30.019,37.998 25.338,39.951 19.867,39.951 C14.394,39.951 9.714,37.998 5.828,34.090 C1.941,30.183 -0.002,25.478 -0.002,19.976 C-0.002,14.474 1.941,9.769 5.828,5.861 C9.714,1.954 14.394,-0.001 19.867,-0.001 C25.338,-0.001 30.019,1.954 33.906,5.861 C37.791,9.769 39.736,14.474 39.736,19.976 ZM38.150,19.976 C38.150,14.911 36.362,10.582 32.786,6.986 C29.210,3.391 24.904,1.594 19.867,1.594 C14.830,1.594 10.523,3.391 6.948,6.986 C3.371,10.582 1.584,14.911 1.584,19.976 C1.584,25.039 3.371,29.370 6.948,32.964 C10.523,36.560 14.830,38.356 19.867,38.356 C24.904,38.356 29.210,36.560 32.786,32.964 C36.362,29.370 38.150,25.039 38.150,19.976 ZM31.527,12.847 C32.087,13.410 32.055,13.974 31.434,14.536 L17.815,27.853 C17.628,28.041 17.379,28.134 17.069,28.134 C16.695,28.134 16.416,28.041 16.229,27.853 L10.912,22.507 C10.352,21.945 10.352,21.382 10.912,20.820 C11.472,20.257 12.032,20.257 12.591,20.820 L17.069,25.320 L29.848,12.847 C30.408,12.285 30.967,12.285 31.527,12.847 Z" class="orange-svg"/>
</svg>
