<svg xmlns="http://www.w3.org/2000/svg" viewBox="0 0 46.188 50.06">
  <path d="M7.293,29.341 C3.802,32.862 2.058,37.099 2.058,42.052 L2.058,46.061 L24.074,46.061 L24.074,48.017 L0.003,48.017 L0.003,42.052 C0.003,37.490 1.373,33.416 4.113,29.831 C6.852,26.246 10.309,23.899 14.485,22.790 C12.528,21.748 10.929,20.282 9.690,18.391 C8.450,16.500 7.831,14.381 7.831,12.035 C7.831,8.711 9.020,5.875 11.402,3.529 C13.783,1.182 16.604,0.008 19.866,0.008 C23.193,0.008 26.031,1.182 28.379,3.529 C30.728,5.875 31.902,8.711 31.902,12.035 C31.902,14.381 31.298,16.518 30.092,18.439 C28.884,20.363 27.269,21.812 25.248,22.790 C28.639,23.638 31.672,25.399 34.348,28.070 L31.315,28.070 C27.988,25.399 24.236,24.061 20.062,24.061 C15.038,24.061 10.782,25.821 7.293,29.341 ZM20.062,22.008 C22.866,22.008 25.248,21.047 27.205,19.123 C29.162,17.202 30.141,14.839 30.141,12.035 C30.141,9.233 29.162,6.870 27.205,4.946 C25.248,3.025 22.866,2.062 20.062,2.062 C17.257,2.062 14.891,3.025 12.968,4.946 C11.043,6.870 10.082,9.233 10.082,12.035 C10.082,14.839 11.043,17.202 12.968,19.123 C14.891,21.047 17.257,22.008 20.062,22.008 ZM46.188,44.106 L40.121,44.106 L40.121,50.070 L38.164,50.070 L38.164,44.106 L32.097,44.106 L32.097,42.052 L38.164,42.052 L38.164,36.088 L40.121,36.088 L40.121,42.052 L46.188,42.052 L46.188,44.106 Z" class="green-svg"/>
</svg>
