<svg xmlns="http://www.w3.org/2000/svg" viewBox="0 0 50.12 42.84">
  <path d="M50.111,13.306 C50.111,17.008 48.805,20.171 46.197,22.790 L25.061,42.842 L3.926,22.987 C1.316,20.301 0.012,17.089 0.012,13.354 C0.012,9.619 1.316,6.441 3.926,3.820 C6.470,1.264 9.731,-0.014 13.711,-0.014 C17.429,-0.014 20.560,1.264 23.104,3.820 C24.147,5.131 24.866,6.114 25.257,6.769 C25.778,5.721 26.495,4.738 27.410,3.820 C29.954,1.264 33.085,-0.014 36.803,-0.014 C40.521,-0.014 43.653,1.264 46.197,3.820 C48.805,6.441 50.111,9.604 50.111,13.306 ZM47.958,13.060 C47.958,9.914 46.848,7.228 44.631,5.000 C42.543,2.773 39.869,1.658 36.607,1.658 C33.411,1.658 30.703,2.773 28.486,5.000 C27.963,5.655 27.410,6.409 26.823,7.260 L25.061,10.209 L23.300,7.260 C22.909,6.606 22.354,5.852 21.637,5.000 C19.418,2.773 16.711,1.658 13.515,1.658 C10.318,1.658 7.579,2.837 5.296,5.196 C3.078,7.424 1.969,10.111 1.969,13.256 C1.969,16.467 3.078,19.188 5.296,21.414 L25.061,40.385 L44.827,21.414 C46.914,19.318 47.958,16.533 47.958,13.060 L47.958,13.060 Z" class="purple-svg"/>
</svg>
