<svg xmlns="http://www.w3.org/2000/svg" viewBox="0 0 50.06 44.34">
  <path d="M50.050,17.367 L48.095,17.367 L48.095,44.346 L1.962,44.346 L1.962,17.367 L0.007,17.367 L0.007,9.617 L15.938,9.617 C14.961,8.506 14.472,7.230 14.472,5.791 C14.472,4.157 15.025,2.784 16.134,1.671 C17.241,0.559 18.609,0.003 20.239,0.003 C22.389,0.003 23.985,0.821 25.028,2.455 C26.070,0.821 27.667,0.003 29.817,0.003 C31.446,0.003 32.814,0.559 33.923,1.671 C35.030,2.784 35.584,4.157 35.584,5.791 C35.584,7.230 35.095,8.506 34.118,9.617 L50.050,9.617 L50.050,17.367 ZM27.130,3.044 C26.380,3.829 26.006,4.745 26.006,5.791 L26.006,9.617 L29.817,9.617 C30.859,9.617 31.772,9.241 32.554,8.489 C33.336,7.738 33.727,6.838 33.727,5.791 C33.727,4.680 33.351,3.748 32.603,2.995 C31.853,2.244 30.925,1.866 29.817,1.866 C28.774,1.866 27.878,2.259 27.130,3.044 ZM17.502,8.489 C18.284,9.241 19.196,9.617 20.239,9.617 L24.051,9.617 L24.051,5.791 C24.051,4.745 23.675,3.829 22.927,3.044 C22.177,2.259 21.281,1.866 20.239,1.866 C19.130,1.866 18.202,2.244 17.453,2.995 C16.703,3.748 16.329,4.680 16.329,5.791 C16.329,6.838 16.720,7.738 17.502,8.489 ZM1.962,15.405 L24.051,15.405 L24.051,11.579 L1.962,11.579 L1.962,15.405 ZM3.819,42.482 L24.051,42.482 L24.051,17.367 L3.819,17.367 L3.819,42.482 ZM46.238,17.367 L26.006,17.367 L26.006,42.482 L46.238,42.482 L46.238,17.367 ZM48.095,11.579 L26.006,11.579 L26.006,15.405 L48.095,15.405 L48.095,11.579 Z" class="orange-svg"/>
</svg>
