<svg xmlns="http://www.w3.org/2000/svg" viewBox="0 0 35.34 54.9">
  <path d="M32.662,27.843 C34.457,30.688 35.355,33.823 35.355,37.252 C35.355,42.084 33.617,46.233 30.144,49.699 C26.670,53.168 22.513,54.901 17.674,54.901 C12.833,54.901 8.676,53.168 5.203,49.699 C1.729,46.233 -0.007,42.084 -0.007,37.252 C-0.007,33.823 0.889,30.688 2.686,27.843 C4.481,24.999 6.861,22.875 9.829,21.472 C6.550,13.603 4.911,8.966 4.911,7.564 L4.911,-0.034 L30.437,-0.034 L30.437,7.564 C30.437,8.655 28.798,13.290 25.519,21.472 C28.485,22.875 30.865,24.999 32.662,27.843 ZM11.585,20.654 C13.614,19.953 15.643,19.602 17.674,19.602 C19.782,19.602 21.772,19.953 23.646,20.654 C26.846,13.173 28.447,8.811 28.447,7.564 L28.447,1.953 L18.611,1.953 L18.611,15.394 L16.620,15.394 L16.620,1.953 L6.901,1.953 L6.901,7.564 C6.901,8.577 8.462,12.940 11.585,20.654 L11.585,20.654 ZM33.364,37.252 C33.364,32.888 31.822,29.187 28.739,26.147 C25.655,23.109 21.966,21.589 17.674,21.589 C13.380,21.589 9.691,23.109 6.608,26.147 C3.524,29.187 1.983,32.888 1.983,37.252 C1.983,41.616 3.524,45.317 6.608,48.355 C9.691,51.395 13.380,52.914 17.674,52.914 C21.966,52.914 25.655,51.395 28.739,48.355 C31.822,45.317 33.364,41.616 33.364,37.252 ZM29.500,37.252 C29.500,40.525 28.348,43.311 26.046,45.609 C23.743,47.908 20.953,49.057 17.674,49.057 C14.395,49.057 11.603,47.908 9.302,45.609 C6.998,43.311 5.847,40.525 5.847,37.252 C5.847,33.979 6.998,31.194 9.302,28.895 C11.603,26.597 14.395,25.447 17.674,25.447 C20.953,25.447 23.743,26.597 26.046,28.895 C28.348,31.194 29.500,33.979 29.500,37.252 ZM27.510,37.252 C27.510,34.603 26.553,32.304 24.641,30.356 C22.727,28.409 20.405,27.433 17.674,27.433 C14.940,27.433 12.619,28.409 10.707,30.356 C8.793,32.304 7.838,34.603 7.838,37.252 C7.838,39.901 8.793,42.201 10.707,44.148 C12.619,46.097 14.940,47.070 17.674,47.070 C20.405,47.070 22.727,46.097 24.641,44.148 C26.553,42.201 27.510,39.901 27.510,37.252 Z" class="green-svg"/>
</svg>
