<svg xmlns="http://www.w3.org/2000/svg" viewBox="0 0 47.969 47.9">
  <path d="M47.956,-0.028 L47.956,47.895 L0.005,47.895 L0.005,-0.028 L47.956,-0.028 ZM1.993,1.960 L1.993,10.959 L45.968,10.959 L45.968,1.960 L1.993,1.960 ZM45.968,45.907 L45.968,12.946 L1.993,12.946 L1.993,45.907 L45.968,45.907 ZM14.975,8.037 L18.016,8.037 L18.016,4.998 L14.975,4.998 L14.975,8.037 ZM29.945,8.037 L32.986,8.037 L32.986,4.998 L29.945,4.998 L29.945,8.037 ZM17.198,19.726 L18.952,19.726 L18.952,35.388 L16.847,35.388 L16.847,24.284 L12.987,24.284 L12.987,22.647 L13.338,22.647 C14.350,22.571 15.034,22.512 15.385,22.472 C15.736,22.434 16.105,22.220 16.496,21.830 C16.885,21.441 17.119,20.856 17.198,20.076 L17.198,19.726 ZM32.811,26.271 C33.785,27.285 34.273,28.608 34.273,30.245 C34.273,31.805 33.726,33.108 32.635,34.161 C31.543,35.213 30.256,35.738 28.776,35.738 C27.215,35.738 25.949,35.271 24.975,34.336 C23.999,33.400 23.513,32.194 23.513,30.712 L23.513,30.362 L25.618,30.362 L25.618,30.712 C25.618,31.648 25.929,32.408 26.554,32.992 C27.177,33.577 27.957,33.869 28.893,33.869 C29.905,33.869 30.706,33.499 31.290,32.758 C31.875,32.019 32.168,31.142 32.168,30.128 C32.168,29.117 31.855,28.279 31.232,27.616 C30.607,26.954 29.788,26.622 28.776,26.622 C27.449,26.622 26.437,27.168 25.735,28.258 L25.618,28.375 L23.864,28.375 L25.501,19.959 L33.571,19.959 L33.571,21.947 L27.022,21.947 L26.320,25.570 C27.098,25.025 27.957,24.751 28.893,24.751 C30.530,24.751 31.835,25.259 32.811,26.271 Z" class="red-svg"/>
</svg>
