<svg xmlns="http://www.w3.org/2000/svg" viewBox="0 0 51.969 46.7">
  <path d="M27.031,35.840 L27.031,39.697 L36.398,44.957 L35.461,46.710 L25.978,41.450 L16.494,46.710 L15.557,44.957 L24.924,39.697 L24.924,35.840 L-0.015,35.840 L-0.015,-0.043 L51.970,-0.043 L51.970,35.840 L27.031,35.840 ZM1.976,33.853 L49.979,33.853 L49.979,1.944 L1.976,1.944 L1.976,33.853 ZM29.022,7.671 L30.895,8.256 L25.392,26.723 L18.953,17.840 L14.738,26.139 L9.118,14.684 L5.956,26.372 L3.966,25.905 L8.532,9.190 L14.738,21.697 L18.718,13.982 L24.690,22.282 L29.022,7.671 ZM44.242,13.632 C45.413,14.801 45.999,16.244 45.999,17.957 C45.999,19.593 45.413,20.995 44.242,22.164 C43.072,23.333 41.626,23.918 39.910,23.918 C38.271,23.918 36.866,23.333 35.695,22.164 C34.525,20.995 33.939,19.593 33.939,17.957 C33.939,16.244 34.525,14.801 35.695,13.632 C36.866,12.463 38.271,11.879 39.910,11.879 C41.626,11.879 43.072,12.463 44.242,13.632 ZM42.779,20.762 C43.599,19.984 44.008,19.049 44.008,17.957 C44.008,16.866 43.599,15.932 42.779,15.151 C41.959,14.374 41.003,13.982 39.910,13.982 C38.816,13.982 37.880,14.374 37.100,15.151 C36.319,15.932 35.930,16.866 35.930,17.957 C35.930,19.049 36.339,19.984 37.159,20.762 C37.979,21.542 38.895,21.931 39.910,21.931 C41.003,21.931 41.959,21.542 42.779,20.762 Z" class="orange-svg"/>
</svg>
