<svg xmlns="http://www.w3.org/2000/svg" viewBox="0 0 45.843 48">
  <path d="M44.730,8.268 C43.988,9.167 43.034,9.733 41.864,9.967 L41.864,44.063 L39.876,44.063 L39.876,9.967 C38.707,9.733 37.751,9.147 37.011,8.209 C36.269,7.272 35.900,6.217 35.900,5.046 C35.900,3.640 36.386,2.450 37.362,1.472 C38.336,0.496 39.525,0.008 40.929,0.008 C42.253,0.008 43.403,0.496 44.379,1.472 C45.353,2.450 45.841,3.640 45.841,5.046 C45.841,6.296 45.470,7.371 44.730,8.268 ZM42.975,7.213 C43.560,6.627 43.852,5.906 43.852,5.046 C43.852,4.187 43.560,3.464 42.975,2.878 C42.391,2.292 41.707,1.999 40.929,1.999 C40.070,1.999 39.350,2.292 38.765,2.878 C38.180,3.464 37.888,4.187 37.888,5.046 C37.888,5.906 38.180,6.627 38.765,7.213 C39.350,7.799 40.070,8.092 40.929,8.092 C41.707,8.092 42.391,7.799 42.975,7.213 ZM8.825,39.844 C9.565,40.782 9.936,41.836 9.936,43.008 C9.936,44.414 9.448,45.606 8.474,46.582 C7.498,47.560 6.310,48.047 4.907,48.047 C3.580,48.047 2.431,47.560 1.457,46.582 C0.481,45.606 -0.005,44.414 -0.005,43.008 C-0.005,41.760 0.364,40.685 1.106,39.786 C1.846,38.889 2.802,38.322 3.971,38.087 L3.971,3.991 L5.959,3.991 L5.959,38.087 C7.129,38.322 8.083,38.907 8.825,39.844 ZM7.071,45.176 C7.655,44.590 7.948,43.869 7.948,43.008 C7.948,42.150 7.655,41.426 7.071,40.840 C6.486,40.255 5.764,39.962 4.907,39.962 C4.127,39.962 3.445,40.255 2.860,40.840 C2.276,41.426 1.983,42.150 1.983,43.008 C1.983,43.869 2.276,44.590 2.860,45.176 C3.445,45.762 4.127,46.054 4.907,46.054 C5.764,46.054 6.486,45.762 7.071,45.176 ZM26.836,20.863 C27.576,21.801 27.947,22.855 27.947,24.027 C27.947,25.199 27.576,26.253 26.836,27.190 C26.094,28.128 25.140,28.714 23.970,28.948 L23.970,44.063 L21.865,44.063 L21.865,28.948 C20.696,28.714 19.740,28.128 19.000,27.190 C18.258,26.253 17.889,25.199 17.889,24.027 C17.889,22.855 18.258,21.801 19.000,20.863 C19.740,19.926 20.696,19.340 21.865,19.105 L21.865,3.991 L23.970,3.991 L23.970,19.105 C25.140,19.340 26.094,19.926 26.836,20.863 ZM25.959,24.027 C25.959,23.247 25.646,22.544 25.023,21.918 C24.398,21.293 23.696,20.981 22.918,20.981 C22.138,20.981 21.436,21.293 20.813,21.918 C20.188,22.544 19.877,23.247 19.877,24.027 C19.877,24.809 20.188,25.511 20.813,26.136 C21.436,26.762 22.138,27.073 22.918,27.073 C23.696,27.073 24.398,26.762 25.023,26.136 C25.646,25.511 25.959,24.809 25.959,24.027 Z" class="green-svg"/>
</svg>
