<svg xmlns="http://www.w3.org/2000/svg" viewBox="0 0 30.03 25.3">
  <path d="M29.913,3.828 C29.600,4.453 29.307,4.882 29.034,5.117 C28.486,5.469 28.067,5.928 27.774,6.493 C27.481,7.060 27.285,7.569 27.188,8.017 C27.090,8.467 27.002,9.062 26.925,9.804 C26.534,13.437 25.098,16.660 22.618,19.472 C20.137,22.285 17.119,24.082 13.565,24.863 C8.995,25.879 4.776,25.215 0.909,22.870 C0.870,22.833 0.762,22.773 0.587,22.695 C0.411,22.617 0.303,22.559 0.264,22.519 C0.225,22.480 0.156,22.392 0.059,22.255 C-0.038,22.119 -0.029,21.992 0.089,21.874 C0.127,21.719 0.196,21.611 0.294,21.553 C0.391,21.493 0.489,21.474 0.587,21.493 C0.684,21.514 0.801,21.533 0.938,21.553 C1.075,21.572 1.182,21.581 1.260,21.581 C3.525,21.816 5.323,21.660 6.651,21.113 C7.237,20.957 7.589,21.054 7.706,21.406 C7.784,21.757 7.549,22.012 7.003,22.168 C6.651,22.285 6.133,22.431 5.450,22.607 C4.766,22.783 4.229,22.930 3.839,23.046 C6.065,23.945 8.194,24.335 10.225,24.218 C14.522,23.984 18.037,22.510 20.772,19.795 C23.506,17.080 25.186,13.828 25.811,10.039 C25.889,9.649 25.928,9.375 25.928,9.219 C25.928,9.140 25.928,8.945 25.928,8.632 C25.928,8.320 25.928,8.115 25.928,8.017 C25.928,7.920 25.938,7.724 25.958,7.431 C25.977,7.138 26.016,6.934 26.075,6.816 C26.134,6.699 26.201,6.533 26.280,6.318 C26.358,6.104 26.465,5.937 26.602,5.820 C26.739,5.703 26.904,5.576 27.100,5.439 C27.295,5.302 27.510,5.176 27.745,5.058 C27.666,5.019 27.588,4.961 27.510,4.882 L27.393,4.824 C27.276,4.824 27.090,4.863 26.837,4.941 C26.582,5.019 26.368,5.049 26.192,5.029 C26.016,5.010 25.870,4.882 25.753,4.648 C25.635,4.413 25.625,4.229 25.723,4.092 C25.820,3.955 25.987,3.819 26.221,3.681 C26.456,3.545 26.611,3.438 26.690,3.359 L27.042,2.832 L26.866,2.655 C25.733,3.124 24.561,2.929 23.350,2.070 C21.670,0.937 19.923,0.860 18.106,1.835 C16.290,2.813 15.342,4.336 15.264,6.405 C15.186,7.617 15.049,8.310 14.854,8.486 C14.658,8.662 13.936,8.632 12.686,8.398 C9.288,7.812 6.007,6.054 2.842,3.124 C2.334,3.907 2.188,4.844 2.403,5.937 C2.617,7.031 3.115,8.008 3.897,8.867 C3.975,8.945 4.132,9.052 4.366,9.189 C4.600,9.326 4.737,9.444 4.776,9.541 C4.815,9.639 4.815,9.825 4.776,10.097 C4.659,10.331 4.512,10.469 4.337,10.508 C4.161,10.547 3.926,10.517 3.634,10.419 C3.341,10.322 3.135,10.273 3.018,10.273 C2.784,10.195 2.569,10.137 2.374,10.097 C2.725,12.129 3.818,13.554 5.655,14.374 L6.124,14.492 C6.475,14.571 6.690,14.668 6.768,14.785 C6.846,14.902 6.865,15.059 6.827,15.254 C6.748,15.605 6.241,15.820 5.303,15.898 L4.717,16.015 C5.421,17.460 6.612,18.398 8.292,18.828 L8.702,18.828 C8.740,18.828 8.858,18.848 9.053,18.886 C9.248,18.925 9.385,18.965 9.464,19.004 C9.541,19.043 9.619,19.111 9.698,19.208 C9.776,19.306 9.795,19.453 9.757,19.648 C9.678,20.079 9.268,20.195 8.526,20.000 C6.572,19.648 5.108,18.691 4.132,17.128 C4.092,17.090 4.014,16.982 3.897,16.807 C3.780,16.631 3.701,16.504 3.663,16.426 C3.623,16.348 3.565,16.231 3.487,16.074 C3.408,15.918 3.370,15.781 3.370,15.664 C3.370,15.546 3.379,15.410 3.399,15.254 C3.418,15.098 3.467,14.941 3.546,14.785 C3.546,14.590 3.555,14.472 3.575,14.434 C3.594,14.395 3.506,14.297 3.311,14.140 L3.077,13.965 C2.061,12.949 1.436,11.699 1.202,10.215 C1.202,10.176 1.182,10.058 1.143,9.863 C1.104,9.668 1.085,9.551 1.085,9.511 C1.085,9.473 1.085,9.385 1.085,9.247 C1.085,9.111 1.114,9.013 1.173,8.955 C1.231,8.896 1.319,8.838 1.436,8.779 C1.553,8.720 1.709,8.672 1.905,8.632 C2.257,8.594 2.295,8.398 2.022,8.046 C1.943,7.968 1.905,7.910 1.905,7.870 C1.045,6.113 0.967,4.278 1.671,2.363 C1.905,1.699 2.149,1.348 2.403,1.308 C2.657,1.270 3.018,1.504 3.487,2.011 C6.026,4.785 9.014,6.543 12.452,7.285 C13.038,7.402 13.448,7.393 13.682,7.255 C13.917,7.119 14.053,6.758 14.092,6.172 C14.444,3.750 15.596,1.973 17.550,0.839 C19.502,-0.293 21.436,-0.293 23.350,0.839 C24.991,1.777 26.534,1.777 27.979,0.839 C28.486,0.605 28.858,0.605 29.092,0.839 C29.287,1.035 29.248,1.387 28.975,1.894 C28.936,2.051 28.858,2.246 28.741,2.480 C28.624,2.715 28.545,2.890 28.507,3.008 C28.662,3.164 28.877,3.184 29.151,3.066 C29.268,3.027 29.346,3.008 29.385,3.008 L29.385,3.008 C30.010,3.008 30.186,3.281 29.913,3.828 L29.913,3.828 Z" class="white-svg"/>
</svg>
