<svg xmlns="http://www.w3.org/2000/svg" viewBox="0 0 30 30">
  <path d="M30.000,27.104 C30.000,28.159 29.785,28.901 29.355,29.331 C28.925,29.761 28.184,29.995 27.129,30.034 L2.812,30.034 C0.976,30.034 0.038,29.117 -0.000,27.280 L-0.000,21.304 C-0.000,20.600 0.214,20.249 0.645,20.249 C0.996,20.289 1.172,20.640 1.172,21.304 L1.172,26.987 C1.172,28.238 1.777,28.862 2.988,28.862 L27.012,28.862 C28.222,28.862 28.828,28.276 28.828,27.104 L28.828,17.670 C28.828,17.241 28.749,16.938 28.594,16.762 C28.437,16.587 28.163,16.519 27.773,16.557 C27.460,16.636 27.167,16.636 26.895,16.557 C25.605,16.363 24.580,16.469 23.818,16.880 C23.057,17.290 22.461,18.139 22.031,19.428 C21.640,20.796 20.693,21.910 19.189,22.769 C17.685,23.628 16.230,23.979 14.824,23.823 C13.066,23.628 11.523,23.003 10.195,21.948 C8.867,20.893 8.007,19.585 7.617,18.022 C7.343,16.929 6.680,16.440 5.625,16.557 L1.289,16.557 C0.429,16.636 -0.000,16.265 -0.000,15.444 L-0.000,2.319 C0.078,0.796 0.996,0.034 2.754,0.034 L23.437,0.034 L27.246,0.034 C29.082,0.034 30.000,0.952 30.000,2.788 L30.000,15.034 L30.000,27.104 ZM19.951,20.571 C21.220,19.302 21.855,17.710 21.855,15.796 C21.855,13.960 21.220,12.427 19.951,11.196 C18.681,9.966 17.070,9.312 15.117,9.234 C13.359,9.195 11.807,9.859 10.459,11.226 C9.111,12.593 8.437,14.155 8.437,15.913 C8.437,17.710 9.131,19.292 10.518,20.659 C11.904,22.027 13.456,22.632 15.176,22.476 C17.089,22.476 18.681,21.841 19.951,20.571 ZM28.564,15.034 C28.779,14.839 28.867,14.487 28.828,13.980 C28.749,10.308 28.749,6.655 28.828,3.023 C28.828,2.359 28.682,1.880 28.389,1.586 C28.096,1.294 27.598,1.168 26.895,1.206 L15.117,1.206 L2.930,1.206 C2.304,1.206 1.855,1.333 1.582,1.586 C1.308,1.841 1.172,2.281 1.172,2.905 L1.172,14.096 C1.172,14.565 1.260,14.879 1.436,15.034 C1.611,15.190 1.913,15.249 2.344,15.210 C4.414,15.210 5.586,15.230 5.859,15.269 C6.406,15.385 6.797,15.347 7.031,15.151 C7.266,14.956 7.441,14.585 7.559,14.038 C7.988,12.242 8.945,10.767 10.430,9.614 C11.914,8.462 13.535,7.925 15.293,8.003 C17.051,8.081 18.623,8.647 20.010,9.702 C21.396,10.757 22.324,12.183 22.793,13.980 C22.988,14.879 23.496,15.308 24.316,15.269 C25.254,15.151 26.309,15.132 27.480,15.210 C27.988,15.288 28.349,15.230 28.564,15.034 ZM26.484,3.901 C26.719,4.175 26.836,4.995 26.836,6.362 C26.836,7.651 26.679,8.462 26.367,8.793 C26.054,9.126 25.292,9.292 24.082,9.292 C22.831,9.292 22.040,9.116 21.709,8.765 C21.377,8.413 21.211,7.554 21.211,6.186 C21.211,4.858 21.347,4.077 21.621,3.843 C21.894,3.608 22.773,3.491 24.258,3.491 C25.507,3.491 26.250,3.629 26.484,3.901 ZM25.723,6.245 C25.683,5.581 25.556,5.122 25.342,4.868 C25.127,4.614 24.706,4.566 24.082,4.721 C23.457,4.604 23.007,4.654 22.734,4.868 C22.461,5.083 22.343,5.522 22.383,6.186 C22.421,6.889 22.529,7.379 22.705,7.651 C22.881,7.925 23.300,8.042 23.965,8.003 C24.629,7.964 25.087,7.827 25.342,7.593 C25.595,7.358 25.723,6.910 25.723,6.245 L25.723,6.245 ZM17.637,19.722 C17.597,19.878 17.607,19.985 17.666,20.043 C17.725,20.103 17.685,20.171 17.549,20.249 C17.411,20.327 17.334,20.376 17.314,20.395 C17.294,20.415 17.206,20.464 17.051,20.542 L16.816,20.600 C15.917,20.874 15.312,20.991 15.000,20.952 C13.437,20.952 12.109,20.278 11.016,18.931 C9.922,17.583 9.589,16.168 10.020,14.682 C10.020,14.644 10.039,14.546 10.078,14.389 C10.117,14.234 10.156,14.117 10.195,14.038 C10.234,13.960 10.292,13.892 10.371,13.832 C10.449,13.774 10.566,13.765 10.723,13.804 C11.113,13.843 11.269,14.214 11.191,14.917 C10.918,16.557 11.328,17.837 12.422,18.754 C13.515,19.673 14.863,19.918 16.465,19.487 C17.129,19.253 17.520,19.331 17.637,19.722 L17.637,19.722 Z" class="white-svg"/>
</svg>
