<svg xmlns="http://www.w3.org/2000/svg" viewBox="0 0 29.75 30">
  <path d="M29.050,0.737 C29.518,1.206 29.753,2.046 29.753,3.257 C29.753,13.686 29.733,21.518 29.694,26.753 C29.694,27.964 29.450,28.813 28.962,29.301 C28.473,29.791 27.623,30.034 26.413,30.034 L16.745,30.034 C16.080,30.034 15.612,29.916 15.339,29.682 C15.065,29.448 14.948,28.999 14.987,28.335 C14.987,27.202 14.987,25.513 14.987,23.266 C14.987,21.021 15.006,19.331 15.046,18.198 C15.046,17.612 14.948,17.212 14.753,16.997 C14.557,16.783 14.186,16.695 13.640,16.734 C13.092,16.812 12.272,16.812 11.179,16.734 C10.710,16.734 10.475,16.557 10.475,16.205 C10.475,15.816 10.710,15.620 11.179,15.620 C11.374,15.620 11.656,15.620 12.028,15.620 C12.399,15.620 12.731,15.620 13.024,15.620 C13.317,15.620 13.600,15.620 13.874,15.620 C14.343,15.659 14.665,15.581 14.841,15.385 C15.016,15.190 15.084,14.879 15.046,14.448 C14.967,13.316 14.967,12.222 15.046,11.167 C15.084,9.917 15.494,8.989 16.276,8.384 C17.057,7.778 18.073,7.574 19.323,7.769 C20.299,7.885 21.178,8.140 21.960,8.530 C21.998,8.530 22.038,8.550 22.077,8.589 C22.584,8.823 22.780,9.097 22.663,9.409 C22.467,9.839 22.057,9.917 21.432,9.643 C20.378,9.174 19.401,8.940 18.503,8.940 C17.331,8.940 16.628,9.507 16.393,10.639 C16.276,11.069 16.208,11.519 16.188,11.987 C16.168,12.455 16.168,12.984 16.188,13.569 C16.208,14.155 16.218,14.605 16.218,14.917 C16.218,14.995 16.218,15.074 16.218,15.151 C16.256,15.464 16.569,15.620 17.155,15.620 L21.667,15.620 C22.331,15.620 22.663,15.816 22.663,16.205 C22.663,16.753 22.311,16.988 21.608,16.909 C20.671,16.909 19.186,16.871 17.155,16.792 C16.764,16.753 16.501,16.812 16.364,16.968 C16.227,17.124 16.159,17.398 16.159,17.788 C16.237,21.030 16.237,24.292 16.159,27.573 C16.159,28.316 16.511,28.687 17.214,28.687 C18.151,28.687 19.127,28.697 20.143,28.716 C21.159,28.736 22.291,28.765 23.542,28.804 C24.792,28.843 25.768,28.862 26.472,28.862 C27.252,28.862 27.761,28.736 27.995,28.481 C28.229,28.228 28.366,27.691 28.405,26.870 L28.581,3.667 C28.581,2.612 28.464,1.978 28.229,1.762 C27.995,1.549 27.330,1.421 26.237,1.382 C21.198,1.226 13.600,1.147 3.444,1.147 C2.507,1.147 1.940,1.255 1.745,1.470 C1.549,1.685 1.413,2.281 1.335,3.257 C1.335,3.296 1.276,10.991 1.159,26.342 C1.159,27.397 1.285,28.042 1.540,28.276 C1.794,28.511 2.428,28.627 3.444,28.627 C5.709,28.627 7.389,28.648 8.483,28.687 C9.304,28.687 9.733,28.882 9.772,29.272 C9.772,29.741 9.362,29.976 8.542,29.976 L2.624,29.976 C0.944,29.897 0.065,28.980 -0.013,27.222 L-0.013,15.093 L0.046,15.093 L0.046,3.139 C0.046,1.967 0.280,1.147 0.749,0.678 C1.218,0.209 2.018,-0.004 3.151,0.034 L26.530,0.034 C27.740,0.034 28.581,0.269 29.050,0.737 Z" class="white-svg"/>
</svg>
