<svg xmlns="http://www.w3.org/2000/svg" viewBox="0 0 27.88 30">
  <path d="M17.221,22.651 C17.533,24.643 17.182,26.304 16.167,27.631 C15.463,28.530 14.409,29.175 13.002,29.565 C11.986,29.800 11.225,29.936 10.717,29.976 L10.483,29.976 L7.788,29.976 C7.553,29.976 7.202,29.936 6.733,29.858 C5.131,29.624 3.862,29.312 2.924,28.920 C1.635,28.296 0.756,27.418 0.288,26.284 C0.131,25.737 0.033,25.327 -0.005,25.054 L-0.005,23.881 C0.033,23.804 0.053,23.726 0.053,23.647 C0.092,23.140 0.248,22.632 0.522,22.124 C0.639,21.889 0.717,21.753 0.756,21.714 C0.951,21.636 1.156,21.772 1.372,22.124 C1.586,22.476 1.635,22.788 1.518,23.061 C1.284,23.530 1.205,24.214 1.284,25.112 C1.439,26.206 2.025,27.027 3.042,27.573 C3.627,27.924 4.252,28.159 4.917,28.276 C6.283,28.627 7.983,28.765 10.014,28.687 C11.069,28.687 12.006,28.550 12.827,28.276 C13.959,27.964 14.819,27.397 15.405,26.577 C15.834,25.913 16.049,25.015 16.049,23.881 C16.088,22.554 15.600,21.441 14.585,20.542 C14.506,20.464 14.409,20.424 14.292,20.424 C12.026,20.152 10.092,20.015 8.491,20.015 C6.967,20.093 5.737,20.269 4.799,20.542 C4.721,20.542 4.614,20.562 4.477,20.600 C4.340,20.640 4.233,20.679 4.155,20.718 C4.038,20.718 3.910,20.640 3.774,20.483 C3.637,20.327 3.540,20.171 3.481,20.015 C3.422,19.859 3.432,19.742 3.510,19.663 C5.229,18.999 7.572,18.706 10.542,18.784 C10.697,18.784 10.952,18.804 11.303,18.843 C11.655,18.882 11.928,18.901 12.124,18.901 C12.006,18.784 11.810,18.618 11.538,18.403 C11.264,18.189 11.069,18.042 10.952,17.964 C9.975,17.143 9.604,16.187 9.838,15.093 C9.838,15.014 9.818,14.956 9.780,14.917 L9.663,14.917 C8.764,15.074 7.885,15.074 7.026,14.917 C4.331,14.448 2.514,12.964 1.577,10.463 C1.108,9.253 0.971,7.866 1.167,6.304 C1.362,4.937 1.772,3.843 2.397,3.023 C3.335,1.695 4.799,0.796 6.792,0.327 C6.987,0.288 7.250,0.239 7.583,0.181 C7.914,0.122 8.158,0.093 8.315,0.093 C10.776,-0.063 13.432,-0.063 16.284,0.093 C16.439,0.093 16.557,0.230 16.635,0.503 C16.713,0.699 16.694,0.884 16.577,1.059 C16.460,1.235 16.284,1.323 16.049,1.323 L13.295,1.323 C13.178,1.323 13.080,1.343 13.002,1.382 C13.080,1.421 13.187,1.499 13.325,1.616 C13.461,1.734 13.549,1.831 13.588,1.909 C15.033,3.277 15.834,4.780 15.991,6.420 C16.186,8.921 15.600,10.932 14.233,12.455 C13.881,12.808 13.237,13.296 12.299,13.920 C11.986,14.155 11.752,14.351 11.596,14.507 C10.814,15.171 10.756,15.894 11.420,16.674 C11.733,17.026 12.124,17.339 12.592,17.612 C14.311,18.784 15.209,19.409 15.288,19.487 L15.288,19.487 C16.381,20.424 17.025,21.480 17.221,22.651 L17.221,22.651 ZM13.471,11.343 C14.135,10.679 14.564,9.643 14.760,8.237 C14.916,6.753 14.721,5.562 14.174,4.663 C13.120,2.788 11.713,1.714 9.956,1.440 C8.315,1.206 6.752,1.461 5.268,2.202 C4.018,2.828 3.197,3.764 2.807,5.015 C2.494,5.757 2.338,6.694 2.338,7.827 C2.338,8.921 2.611,9.957 3.159,10.932 C4.291,12.847 6.108,13.804 8.608,13.804 C10.249,13.765 11.869,12.945 13.471,11.343 L13.471,11.343 ZM27.885,14.214 L27.885,14.565 C27.729,14.879 27.436,15.034 27.006,15.034 L23.901,15.034 C23.627,15.034 23.491,15.151 23.491,15.385 L23.491,18.550 C23.491,19.135 23.295,19.428 22.905,19.428 C22.475,19.351 22.260,19.058 22.260,18.550 L22.260,15.327 C22.260,15.132 22.162,15.034 21.967,15.034 L18.745,15.034 C18.197,15.034 17.924,14.839 17.924,14.448 C17.924,14.018 18.197,13.804 18.745,13.804 L21.909,13.804 C22.143,13.804 22.260,13.667 22.260,13.393 L22.260,10.346 L22.260,9.995 C22.338,9.566 22.553,9.390 22.905,9.467 C23.295,9.467 23.491,9.643 23.491,9.995 L23.491,11.459 C23.491,11.616 23.491,11.831 23.491,12.104 C23.491,12.378 23.491,12.631 23.491,12.866 C23.491,13.100 23.491,13.316 23.491,13.511 C23.491,13.707 23.608,13.804 23.842,13.804 L27.006,13.804 C27.396,13.804 27.689,13.941 27.885,14.214 L27.885,14.214 Z" class="white-svg"/>
</svg>
