<svg xmlns="http://www.w3.org/2000/svg" viewBox="0 0 35.94 34.68">
  <path d="M35.939,5.308 C35.939,6.819 35.417,8.095 34.376,9.136 C33.334,10.179 32.084,10.699 30.626,10.699 C28.595,10.699 27.058,9.814 26.017,8.042 L10.470,14.605 C10.574,15.126 10.626,15.595 10.626,16.011 C10.626,16.898 10.418,17.757 10.001,18.590 L20.001,25.777 C21.095,24.580 22.423,23.980 23.986,23.980 C25.443,23.980 26.693,24.515 27.736,25.581 C28.777,26.650 29.298,27.913 29.298,29.371 C29.298,30.829 28.777,32.080 27.736,33.121 C26.693,34.163 25.443,34.683 23.986,34.683 C22.527,34.683 21.277,34.163 20.236,33.121 C19.193,32.080 18.673,30.829 18.673,29.371 C18.673,28.382 18.855,27.548 19.220,26.871 L9.220,19.605 C8.177,20.752 6.876,21.324 5.314,21.324 C3.855,21.324 2.605,20.816 1.564,19.801 C0.521,18.785 0.001,17.523 0.001,16.011 C0.001,14.502 0.521,13.238 1.564,12.223 C2.605,11.207 3.855,10.699 5.314,10.699 C7.396,10.699 8.933,11.585 9.923,13.355 L25.548,6.793 C25.392,6.324 25.314,5.830 25.314,5.308 C25.314,3.851 25.834,2.600 26.876,1.558 C27.917,0.517 29.168,-0.005 30.626,-0.005 C32.084,-0.005 33.334,0.517 34.376,1.558 C35.417,2.600 35.939,3.851 35.939,5.308 L35.939,5.308 ZM20.001,29.371 C20.001,30.465 20.392,31.402 21.173,32.183 C21.954,32.965 22.892,33.355 23.986,33.355 C25.079,33.355 26.017,32.965 26.798,32.183 C27.579,31.402 27.970,30.465 27.970,29.371 C27.970,28.226 27.579,27.261 26.798,26.481 C26.017,25.699 25.079,25.308 23.986,25.308 C22.892,25.308 21.954,25.699 21.173,26.481 C20.392,27.261 20.001,28.226 20.001,29.371 L20.001,29.371 ZM9.298,16.011 C9.298,14.918 8.907,13.980 8.126,13.199 C7.345,12.417 6.407,12.027 5.314,12.027 C4.220,12.027 3.282,12.417 2.501,13.199 C1.720,13.980 1.329,14.918 1.329,16.011 C1.329,17.105 1.720,18.043 2.501,18.824 C3.282,19.605 4.220,19.996 5.314,19.996 C6.407,19.996 7.345,19.605 8.126,18.824 C8.907,18.043 9.298,17.105 9.298,16.011 ZM34.611,5.308 C34.611,4.214 34.220,3.277 33.439,2.496 C32.658,1.715 31.720,1.324 30.626,1.324 C29.532,1.324 28.595,1.715 27.814,2.496 C27.032,3.277 26.642,4.214 26.642,5.308 C26.642,6.455 27.032,7.418 27.814,8.199 C28.595,8.980 29.532,9.371 30.626,9.371 C31.720,9.371 32.658,8.980 33.439,8.199 C34.220,7.418 34.611,6.455 34.611,5.308 L34.611,5.308 Z" class="red-svg"/>
</svg>
