<svg xmlns="http://www.w3.org/2000/svg" viewBox="0 0 55 42.97">
  <path d="M46.406,42.969 L-0.000,42.969 L-0.000,6.863 L46.406,6.863 L46.406,42.969 ZM1.719,8.582 L1.719,31.471 L12.891,20.188 L25.137,34.157 L33.623,29.000 L44.687,38.563 L44.687,8.582 L1.719,8.582 ZM44.687,41.249 L44.687,40.820 L33.408,31.148 L24.707,36.306 L12.891,22.767 L1.719,33.835 L1.719,41.249 L44.687,41.249 ZM7.734,-0.014 L55.000,-0.014 L55.000,36.092 L47.266,36.092 L47.266,34.372 L53.281,34.372 L53.281,1.705 L9.453,1.705 L9.453,6.004 L7.734,6.004 L7.734,-0.014 ZM29.219,18.899 C29.219,17.466 29.719,16.249 30.723,15.245 C31.725,14.242 32.941,13.741 34.375,13.741 C35.807,13.741 37.024,14.242 38.027,15.245 C39.029,16.249 39.531,17.466 39.531,18.899 C39.531,20.332 39.029,21.550 38.027,22.552 C37.024,23.556 35.807,24.056 34.375,24.056 C32.941,24.056 31.725,23.556 30.723,22.552 C29.719,21.550 29.219,20.332 29.219,18.899 ZM30.937,18.899 C30.937,19.902 31.260,20.725 31.904,21.370 C32.549,22.015 33.371,22.337 34.375,22.337 C35.377,22.337 36.201,22.015 36.846,21.370 C37.490,20.725 37.812,19.902 37.812,18.899 C37.812,17.896 37.490,17.072 36.846,16.427 C36.201,15.782 35.377,15.460 34.375,15.460 C33.371,15.460 32.549,15.782 31.904,16.427 C31.260,17.072 30.937,17.896 30.937,18.899 Z" class="purple-svg"/>
</svg>
