<svg xmlns="http://www.w3.org/2000/svg" viewBox="0 0 55 38.69">
  <path d="M47.266,38.689 L-0.000,38.689 L-0.000,7.742 L47.266,7.742 L47.266,38.689 ZM45.547,9.461 L1.719,9.461 L1.719,36.970 L45.547,36.970 L45.547,9.461 ZM9.453,6.022 L7.734,6.022 L7.734,0.006 L55.000,0.006 L55.000,30.952 L48.984,30.952 L48.984,29.233 L53.281,29.233 L53.281,1.725 L9.453,1.725 L9.453,6.022 ZM42.969,20.637 L35.234,20.637 L35.234,12.040 L42.969,12.040 L42.969,20.637 ZM41.250,13.759 L36.953,13.759 L36.953,18.917 L41.250,18.917 L41.250,13.759 ZM27.500,34.391 L29.219,34.391 L29.219,12.040 L27.500,12.040 L27.500,34.391 ZM4.297,15.478 L24.922,15.478 L24.922,13.759 L4.297,13.759 L4.297,15.478 ZM4.297,19.777 L22.344,19.777 L22.344,18.058 L4.297,18.058 L4.297,19.777 ZM4.297,24.076 L23.203,24.076 L23.203,22.356 L4.297,22.356 L4.297,24.076 Z" class="red-svg"/>
</svg>
